<svg xmlns="http://www.w3.org/2000/svg" width="41" height="40" viewBox="0 0 41 40" fill="none"><rect x="0.8125" width="40" height="40" rx="20" fill="#2F65D4"></rect><path d="M33.2119 24.3372H19.8153L31.3362 21.2838C31.9065 21.1009 33.3519 20.6678 33.3519 19.1239V14.9239C33.3519 13.6888 32.4716 12.5772 31.2177 12.5772H13.1748L12.8097 11.0473C12.7495 10.7953 12.5241 10.6172 12.2651 10.6172H7.73188C7.42276 10.6172 7.17188 10.8681 7.17188 11.1772C7.17188 11.4863 7.42276 11.7372 7.73188 11.7372H11.823L14.9928 25.0271C15.053 25.2791 15.2784 25.4572 15.5374 25.4572H15.5612H15.5629H15.5652H17.2919C16.8767 26.0172 16.6202 26.5537 16.6202 27.2103C16.6202 28.589 17.7419 29.737 19.1206 29.737C20.4993 29.737 21.621 28.5755 21.621 27.1968C21.621 26.5402 21.3645 26.0172 20.9493 25.4572H27.6522C27.237 26.0172 26.9805 26.5537 26.9805 27.2103C26.9805 28.589 28.1022 29.737 29.4809 29.737C30.8596 29.737 31.9813 28.5755 31.9813 27.1968C31.9813 26.5402 31.7248 26.0172 31.3096 25.4572H33.2119C33.521 25.4572 33.7719 25.2063 33.7719 24.8972C33.7719 24.5881 33.521 24.3372 33.2119 24.3372ZM19.1206 28.6439C18.3596 28.6439 17.7402 28.0245 17.7402 27.2635C17.7402 26.5024 18.3596 25.8831 19.1206 25.8831C19.8816 25.8831 20.501 26.5024 20.501 27.2635C20.501 28.0245 19.8816 28.6439 19.1206 28.6439ZM29.4806 28.6439C28.7196 28.6439 28.1002 28.0245 28.1002 27.2635C28.1002 26.5024 28.7196 25.8831 29.4806 25.8831C30.2416 25.8831 30.861 26.5024 30.861 27.2635C30.861 28.0245 30.2416 28.6439 29.4806 28.6439ZM13.4422 13.6972H31.2177C31.8432 13.6972 32.2319 14.3168 32.2319 14.9239V19.1239C32.2319 19.5604 32.0793 19.9224 31.02 20.2629L15.9154 24.2672L13.4422 13.6972Z" fill="white"></path></svg>