<svg width="16" height="17" viewBox="0 0 16 17" fill="none" xmlns="http://www.w3.org/2000/svg">
<path d="M8.00002 0.5C6.41776 0.5 4.87104 0.969193 3.55545 1.84825C2.23985 2.7273 1.21447 3.97673 0.608968 5.43854C0.00346629 6.90035 -0.154961 8.50889 0.153722 10.0607C0.462404 11.6126 1.22433 13.0381 2.34315 14.1569C3.46197 15.2757 4.88744 16.0376 6.43929 16.3463C7.99114 16.655 9.59968 16.4966 11.0615 15.8911C12.5233 15.2856 13.7727 14.2602 14.6518 12.9446C15.5308 11.629 16 10.0823 16 8.50001C15.9977 6.37898 15.1541 4.34548 13.6543 2.84568C12.1545 1.34589 10.121 0.502294 8.00002 0.5ZM8.00002 15.1667C6.68147 15.1667 5.39254 14.7757 4.29621 14.0432C3.19988 13.3106 2.34539 12.2694 1.84081 11.0512C1.33622 9.83306 1.2042 8.49262 1.46144 7.19941C1.71867 5.9062 2.35361 4.71831 3.28596 3.78596C4.21832 2.85361 5.4062 2.21867 6.69941 1.96143C7.99262 1.7042 9.33307 1.83622 10.5512 2.34081C11.7694 2.84539 12.8106 3.69988 13.5432 4.79621C14.2757 5.89254 14.6667 7.18147 14.6667 8.50001C14.6648 10.2675 13.9617 11.9621 12.7119 13.2119C11.4621 14.4617 9.76753 15.1648 8.00002 15.1667Z" fill="#005DFD"/>
<path d="M8.00521 7.1875H7.33854C7.16173 7.1875 6.99216 7.25774 6.86714 7.38276C6.74211 7.50779 6.67188 7.67736 6.67188 7.85417C6.67188 8.03098 6.74211 8.20055 6.86714 8.32557C6.99216 8.4506 7.16173 8.52084 7.33854 8.52084H8.00521V12.5208C8.00521 12.6977 8.07545 12.8672 8.20047 12.9922C8.3255 13.1173 8.49507 13.1875 8.67188 13.1875C8.84869 13.1875 9.01826 13.1173 9.14328 12.9922C9.26831 12.8672 9.33855 12.6977 9.33855 12.5208V8.52084C9.33855 8.16721 9.19807 7.82807 8.94802 7.57803C8.69797 7.32798 8.35883 7.1875 8.00521 7.1875Z" fill="#005DFD"/>
<path d="M8 5.8125C8.55229 5.8125 9 5.36479 9 4.8125C9 4.26022 8.55229 3.8125 8 3.8125C7.44772 3.8125 7 4.26022 7 4.8125C7 5.36479 7.44772 5.8125 8 5.8125Z" fill="#005DFD"/>
</svg>
