<svg width="100" height="70" viewBox="0 0 100 70" fill="none" xmlns="http://www.w3.org/2000/svg">
<path d="M7.97815 65.4178L6.35373 59.334L4.70875 65.4178C4.5795 65.8804 4.47963 66.2094 4.40325 66.4111C4.32688 66.6127 4.19763 66.7906 4.00963 66.9507C3.82164 67.1108 3.57195 67.1908 3.26058 67.1908C3.00796 67.1908 2.80234 67.1434 2.64078 67.0485C2.47922 66.9536 2.34703 66.8202 2.24716 66.6482C2.14728 66.4763 2.06504 66.2687 2.00041 66.0316C1.93579 65.7944 1.87998 65.572 1.83004 65.3704L0.155685 58.5365C0.0499368 58.1392 0 57.8368 0 57.6292C0 57.3654 0.0910613 57.146 0.273184 56.9651C0.455307 56.7843 0.681491 56.6953 0.951738 56.6953C1.32186 56.6953 1.57154 56.8139 1.69785 57.0541C1.8271 57.2942 1.93872 57.6411 2.03566 58.1006L3.35164 64.0273L4.82625 58.4831C4.93494 58.0591 5.03481 57.736 5.12 57.5136C5.20812 57.2912 5.34912 57.1015 5.54593 56.9384C5.74274 56.7754 6.01005 56.6953 6.34786 56.6953C6.69154 56.6953 6.95591 56.7783 7.14684 56.9473C7.33778 57.1163 7.46703 57.3001 7.54046 57.4988C7.6139 57.6974 7.71084 58.0236 7.83421 58.4831L9.3235 64.0273L10.6395 58.1006C10.7041 57.7923 10.7629 57.5492 10.8216 57.3743C10.8774 57.1993 10.9773 57.0422 11.1154 56.9028C11.2564 56.7665 11.459 56.6953 11.7234 56.6953C11.9878 56.6953 12.214 56.7843 12.399 56.9621C12.5841 57.14 12.6781 57.3624 12.6781 57.6292C12.6781 57.819 12.6281 58.1214 12.5283 58.5365L10.8539 65.3704C10.7394 65.8329 10.6454 66.1709 10.569 66.3844C10.4926 66.5978 10.3663 66.7876 10.1842 66.9477C10.0021 67.1108 9.74944 67.1908 9.42044 67.1908C9.10907 67.1908 8.85938 67.1137 8.67432 66.9566C8.48633 66.7994 8.35708 66.6245 8.28364 66.4259C8.21314 66.2302 8.11033 65.8922 7.97815 65.4178Z" fill="#1CD4E0"/>
<path d="M18.7862 63.806H15.1232C15.1291 64.2359 15.2143 64.6124 15.3817 64.9415C15.5492 65.2706 15.7695 65.5167 16.0456 65.6827C16.3217 65.8488 16.6272 65.9318 16.9621 65.9318C17.1853 65.9318 17.3909 65.9051 17.576 65.8517C17.7611 65.7984 17.9403 65.7154 18.1136 65.6027C18.2869 65.49 18.4484 65.3685 18.5924 65.238C18.7392 65.1105 18.9272 64.9326 19.1622 64.7133C19.2592 64.6302 19.3943 64.5887 19.5735 64.5887C19.7644 64.5887 19.9201 64.6421 20.0405 64.7488C20.158 64.8556 20.2197 65.0038 20.2197 65.1995C20.2197 65.3714 20.1522 65.5701 20.02 65.7984C19.8878 66.0267 19.688 66.2461 19.4207 66.4566C19.1534 66.6671 18.8186 66.842 18.4132 66.9784C18.0078 67.1177 17.5437 67.1859 17.0179 67.1859C15.8135 67.1859 14.8794 66.839 14.2126 66.1482C13.5458 65.4574 13.2109 64.5176 13.2109 63.3316C13.2109 62.7743 13.2932 62.2554 13.4577 61.7781C13.6222 61.3007 13.8631 60.8916 14.1774 60.5506C14.4917 60.2097 14.8824 59.9458 15.3435 59.765C15.8047 59.5841 16.3188 59.4922 16.8798 59.4922C17.6113 59.4922 18.2399 59.6464 18.7627 59.9606C19.2856 60.2719 19.6792 60.6752 19.9407 61.1673C20.2021 61.6624 20.3313 62.1635 20.3313 62.6764C20.3313 63.1508 20.1962 63.4591 19.926 63.6014C19.6528 63.7378 19.2739 63.806 18.7862 63.806ZM15.1232 62.7327H18.5189C18.4719 62.0864 18.3016 61.6031 18.0019 61.2829C17.7023 60.9627 17.3087 60.8026 16.8181 60.8026C16.3511 60.8026 15.9692 60.9657 15.6696 61.2918C15.367 61.615 15.1849 62.0983 15.1232 62.7327Z" fill="#1CD4E0"/>
<path d="M23.4432 57.7715V60.6593C23.7957 60.2916 24.154 60.007 24.5212 59.8113C24.8855 59.6157 25.3408 59.5178 25.8783 59.5178C26.5011 59.5178 27.0445 59.6661 27.5145 59.9655C27.9845 60.265 28.3458 60.6949 28.6043 61.2611C28.8628 61.8274 28.992 62.4975 28.992 63.2713C28.992 63.8435 28.9215 64.3683 28.7747 64.8456C28.6307 65.323 28.4222 65.738 28.146 66.0879C27.8729 66.4377 27.538 66.7105 27.1473 66.9003C26.7566 67.093 26.3248 67.1878 25.8548 67.1878C25.5669 67.1878 25.2967 67.1552 25.0411 67.0841C24.7885 67.0159 24.5712 66.924 24.392 66.8113C24.2128 66.6986 24.063 66.583 23.9367 66.4615C23.8103 66.3399 23.6459 66.162 23.4402 65.9219V66.1086C23.4402 66.4644 23.355 66.7313 23.1876 66.9151C23.0172 67.0989 22.8028 67.1878 22.5443 67.1878C22.2799 67.1878 22.0684 67.0959 21.9098 66.9151C21.7512 66.7342 21.6719 66.4644 21.6719 66.1086V57.8575C21.6719 57.4751 21.7482 57.1845 21.901 56.9888C22.0537 56.7932 22.2682 56.6953 22.5414 56.6953C22.8292 56.6953 23.0525 56.7902 23.2052 56.977C23.3668 57.1608 23.4432 57.4247 23.4432 57.7715ZM23.5342 63.3869C23.5342 64.14 23.7046 64.7181 24.0453 65.1214C24.3861 65.5246 24.8326 65.7262 25.3878 65.7262C25.8578 65.7262 26.2631 65.5186 26.6039 65.1065C26.9446 64.6944 27.115 64.1015 27.115 63.3306C27.115 62.8325 27.0445 62.4026 26.9035 62.0439C26.7625 61.6822 26.5598 61.4064 26.2984 61.2078C26.0369 61.0121 25.7344 60.9143 25.3878 60.9143C25.0323 60.9143 24.7121 61.0121 24.4331 61.2078C24.154 61.4035 23.9337 61.6881 23.7751 62.0587C23.6135 62.4323 23.5342 62.874 23.5342 63.3869Z" fill="#1CD4E0"/>
<path d="M36.5199 64.7278C36.5199 65.2496 36.3936 65.6973 36.1439 66.0679C35.8913 66.4385 35.5212 66.7202 35.0306 66.9129C34.5401 67.1056 33.9408 67.2005 33.2358 67.2005C32.5632 67.2005 31.9874 67.0967 31.5086 66.8892C31.0298 66.6816 30.6744 66.4207 30.4452 66.1094C30.2161 65.7981 30.1016 65.4868 30.1016 65.1725C30.1016 64.965 30.175 64.7871 30.3219 64.6388C30.4687 64.4906 30.6538 64.4165 30.8771 64.4165C31.0739 64.4165 31.2237 64.4639 31.3294 64.5618C31.4352 64.6596 31.535 64.796 31.632 64.9709C31.8229 65.3089 32.055 65.5609 32.3223 65.7269C32.5896 65.893 32.9538 65.976 33.415 65.976C33.791 65.976 34.0965 65.893 34.3374 65.724C34.5783 65.555 34.6987 65.3623 34.6987 65.1458C34.6987 64.8138 34.5753 64.5707 34.3256 64.4194C34.0759 64.2682 33.6647 64.12 33.0948 63.9836C32.4486 63.8206 31.9257 63.6516 31.5204 63.4737C31.115 63.2958 30.7919 63.0616 30.551 62.771C30.3101 62.4805 30.1867 62.1217 30.1867 61.6977C30.1867 61.3182 30.2984 60.9625 30.5216 60.6245C30.7449 60.2865 31.0768 60.0196 31.5115 59.818C31.9463 59.6164 32.475 59.5156 33.0919 59.5156C33.5766 59.5156 34.0113 59.566 34.3991 59.6668C34.7868 59.7676 35.107 59.904 35.3655 60.076C35.624 60.2479 35.8208 60.4347 35.9559 60.6423C36.091 60.8498 36.1586 61.0544 36.1586 61.253C36.1586 61.4694 36.0852 61.6473 35.9442 61.7867C35.8002 61.926 35.5946 61.9942 35.3302 61.9942C35.1393 61.9942 34.9748 61.9379 34.8397 61.8282C34.7046 61.7185 34.5489 61.5525 34.3756 61.3301C34.2346 61.1463 34.0671 60.998 33.8762 60.8883C33.6853 60.7757 33.4238 60.7223 33.0948 60.7223C32.757 60.7223 32.475 60.7964 32.2518 60.9417C32.0285 61.087 31.9169 61.2678 31.9169 61.4843C31.9169 61.6829 31.9992 61.846 32.1637 61.9735C32.3282 62.101 32.5514 62.2047 32.8275 62.2877C33.1066 62.3708 33.4914 62.4716 33.979 62.5931C34.5606 62.7354 35.0336 62.9074 35.4037 63.106C35.7709 63.3047 36.0499 63.5389 36.2409 63.8087C36.4259 64.0755 36.5199 64.3809 36.5199 64.7278Z" fill="#1CD4E0"/>
<path d="M39.0504 58.6313C38.7889 58.6313 38.5657 58.5513 38.3806 58.3882C38.1956 58.2251 38.1016 57.9968 38.1016 57.7033C38.1016 57.4365 38.1956 57.2141 38.3865 57.0422C38.5774 56.8702 38.7977 56.7812 39.0504 56.7812C39.2912 56.7812 39.5057 56.8583 39.6937 57.0184C39.8817 57.1756 39.9757 57.4039 39.9757 57.7033C39.9757 57.9939 39.8846 58.2222 39.7025 58.3852C39.5174 58.5513 39.3001 58.6313 39.0504 58.6313ZM39.9757 60.5851V66.0463C39.9757 66.4258 39.8875 66.7105 39.7084 66.9061C39.5292 67.0989 39.303 67.1967 39.0298 67.1967C38.7566 67.1967 38.5334 67.0989 38.3601 66.9002C38.1868 66.7016 38.1016 66.4169 38.1016 66.0493V60.6415C38.1016 60.2679 38.1868 59.9862 38.3601 59.7965C38.5304 59.6067 38.7537 59.5119 39.0298 59.5119C39.303 59.5119 39.5292 59.6067 39.7084 59.7965C39.8875 59.9862 39.9757 60.2471 39.9757 60.5851Z" fill="#1CD4E0"/>
<path d="M42.0257 59.674H42.2314V58.5385C42.2314 58.2331 42.2402 57.9959 42.2549 57.821C42.2695 57.6491 42.3165 57.4979 42.39 57.3733C42.4634 57.2429 42.5692 57.1391 42.7043 57.0591C42.8424 56.979 42.9951 56.9375 43.1625 56.9375C43.4005 56.9375 43.6149 57.0264 43.8088 57.2073C43.938 57.3259 44.0173 57.4741 44.0526 57.6461C44.0878 57.8181 44.1025 58.0641 44.1025 58.3843V59.6711H44.7899C45.0543 59.6711 45.2569 59.7363 45.3979 59.8608C45.536 59.9883 45.6065 60.1514 45.6065 60.35C45.6065 60.605 45.5066 60.7829 45.3069 60.8837C45.1071 60.9845 44.8222 61.0349 44.4521 61.0349H44.1025V64.5097C44.1025 64.8062 44.1143 65.0315 44.1348 65.1916C44.1554 65.3517 44.2112 65.4792 44.2993 65.58C44.3875 65.6808 44.5343 65.7282 44.7341 65.7282C44.8428 65.7282 44.9926 65.7075 45.1806 65.6689C45.3686 65.6304 45.5154 65.6096 45.6183 65.6096C45.7681 65.6096 45.9061 65.6719 46.0266 65.7934C46.147 65.915 46.2087 66.0662 46.2087 66.2471C46.2087 66.5524 46.0442 66.7837 45.7152 66.9468C45.3862 67.1069 44.9133 67.1899 44.2964 67.1899C43.7118 67.1899 43.2683 67.092 42.9657 66.8934C42.6632 66.6948 42.4664 66.419 42.3724 66.0692C42.2784 65.7193 42.2314 65.2509 42.2314 64.6638V61.0349H41.9846C41.7144 61.0349 41.5087 60.9697 41.3677 60.8422C41.2267 60.7117 41.1562 60.5487 41.1562 60.35C41.1562 60.1514 41.2297 59.9883 41.3795 59.8608C41.5264 59.7363 41.7408 59.674 42.0257 59.674Z" fill="#1CD4E0"/>
<path d="M48.621 67.4317L48.7914 67.0107L46.4855 61.1552C46.3445 60.8172 46.274 60.5741 46.274 60.4229C46.274 60.2598 46.3151 60.1116 46.3974 59.9722C46.4796 59.8329 46.5942 59.7232 46.7352 59.6401C46.8791 59.5571 47.0289 59.5156 47.1846 59.5156C47.4549 59.5156 47.6575 59.6016 47.7956 59.7765C47.9337 59.9515 48.0541 60.1975 48.1598 60.5207L49.7431 65.1725L51.2442 60.8468C51.3617 60.497 51.4704 60.2213 51.5673 60.0226C51.6642 59.824 51.7641 59.6906 51.8728 59.6224C51.9785 59.5542 52.1313 59.5186 52.3281 59.5186C52.4691 59.5186 52.6072 59.5571 52.7364 59.6313C52.8657 59.7083 52.9685 59.8091 53.039 59.9396C53.1095 60.0701 53.1447 60.2064 53.1447 60.3487C53.1271 60.4377 53.0948 60.5622 53.0537 60.7223C53.0125 60.8854 52.9626 61.0484 52.9038 61.2145L50.4628 67.6659C50.2513 68.2352 50.0457 68.6799 49.8459 69.0031C49.6433 69.3262 49.3789 69.5753 49.047 69.7473C48.715 69.9192 48.2685 70.0082 47.7075 70.0082C47.1582 70.0082 46.7469 69.9459 46.4737 69.8273C46.2006 69.7087 46.0625 69.4893 46.0625 69.1691C46.0625 68.9527 46.1271 68.7866 46.2593 68.6681C46.3886 68.5495 46.5824 68.4902 46.838 68.4902C46.9379 68.4902 47.0377 68.505 47.1317 68.5317C47.2492 68.5584 47.355 68.5732 47.4402 68.5732C47.6546 68.5732 47.825 68.5406 47.9483 68.4753C48.0717 68.4101 48.1833 68.2974 48.2803 68.1403C48.3802 67.9772 48.4918 67.7401 48.621 67.4317Z" fill="#1CD4E0"/>
<path d="M59.4047 56.875H62.0601C62.7504 56.875 63.3438 56.9402 63.8373 57.0677C64.3308 57.1982 64.7802 57.4383 65.1827 57.7941C66.2284 58.6984 66.7542 60.0741 66.7542 61.9211C66.7542 62.5289 66.7013 63.0863 66.5956 63.5903C66.4898 64.0944 66.3283 64.548 66.108 64.9512C65.8876 65.3544 65.6086 65.7161 65.2649 66.0334C64.9947 66.2794 64.7009 66.4751 64.3807 66.6234C64.0605 66.7716 63.7169 66.8754 63.3467 66.9347C62.9796 66.994 62.5624 67.0236 62.1013 67.0236H59.4458C59.0757 67.0236 58.7966 66.9673 58.6086 66.8546C58.4206 66.742 58.2972 66.5818 58.2414 66.3773C58.1856 66.1727 58.1562 65.9059 58.1562 65.5768V58.1351C58.1562 57.6933 58.2532 57.3701 58.45 57.1715C58.6468 56.9758 58.967 56.875 59.4047 56.875ZM60.1948 58.5027V65.39H61.737C62.0748 65.39 62.3392 65.3811 62.5331 65.3633C62.724 65.3455 62.9237 65.2981 63.1294 65.224C63.335 65.1498 63.5142 65.0461 63.664 64.9127C64.3455 64.3315 64.6862 63.3294 64.6862 61.9093C64.6862 60.9072 64.5364 60.1571 64.2368 59.659C63.9372 59.1609 63.5671 58.8436 63.1294 58.7073C62.6917 58.5709 62.16 58.5027 61.5373 58.5027H60.1948Z" fill="#1CD4E0"/>
<path d="M69.355 58.6313C69.0936 58.6313 68.8704 58.5513 68.6853 58.3882C68.5002 58.2251 68.4062 57.9968 68.4062 57.7033C68.4062 57.4365 68.5002 57.2141 68.6912 57.0422C68.8821 56.8702 69.1024 56.7812 69.3521 56.7812C69.593 56.7812 69.8074 56.8583 69.9954 57.0184C70.1834 57.1756 70.2774 57.4039 70.2774 57.7033C70.2774 57.9939 70.1864 58.2222 70.0042 58.3852C69.825 58.5513 69.6077 58.6313 69.355 58.6313ZM70.2804 60.5851V66.0463C70.2804 66.4258 70.1922 66.7105 70.013 66.9061C69.8339 67.0989 69.6077 67.1967 69.3345 67.1967C69.0613 67.1967 68.8381 67.0989 68.6647 66.9002C68.4944 66.7016 68.4062 66.4169 68.4062 66.0493V60.6415C68.4062 60.2679 68.4914 59.9862 68.6647 59.7965C68.8351 59.6067 69.0584 59.5119 69.3345 59.5119C69.6077 59.5119 69.8339 59.6067 70.013 59.7965C70.1922 59.9862 70.2804 60.2471 70.2804 60.5851Z" fill="#1CD4E0"/>
<path d="M79.1023 60.9032V66.394C79.1023 67.0226 79.0348 67.5622 78.9026 68.0128C78.7704 68.4635 78.556 68.84 78.2652 69.1335C77.9714 69.427 77.5896 69.6494 77.1166 69.7917C76.6437 69.934 76.0533 70.0052 75.3512 70.0052C74.705 70.0052 74.1322 69.9133 73.621 69.7324C73.1129 69.5486 72.7222 69.3144 72.449 69.0268C72.1758 68.7392 72.0377 68.4427 72.0377 68.1373C72.0377 67.9061 72.1171 67.7193 72.2698 67.574C72.4255 67.4288 72.6135 67.3546 72.8338 67.3546C73.107 67.3546 73.3479 67.4762 73.5535 67.7223C73.6534 67.8468 73.7591 67.9743 73.8649 68.0988C73.9706 68.2263 74.091 68.333 74.2203 68.4249C74.3495 68.5139 74.5082 68.5821 74.6903 68.6265C74.8724 68.671 75.0839 68.6918 75.3218 68.6918C75.8065 68.6918 76.1825 68.6236 76.4498 68.4872C76.7171 68.3508 76.9051 68.1611 77.0138 67.915C77.1225 67.6719 77.1842 67.408 77.2018 67.1293C77.2194 66.8506 77.2341 66.4 77.2429 65.7833C76.9551 66.1895 76.6231 66.4978 76.2442 66.7113C75.8653 66.9247 75.4188 67.0285 74.8959 67.0285C74.2702 67.0285 73.7209 66.8684 73.2539 66.5423C72.7839 66.2191 72.4255 65.7655 72.1729 65.1844C71.9203 64.6033 71.7969 63.9303 71.7969 63.1713C71.7969 62.605 71.8733 62.0921 72.026 61.6355C72.1787 61.1789 72.3961 60.7935 72.6811 60.4792C72.9631 60.1649 73.292 59.9277 73.6622 59.7706C74.0323 59.6105 74.4406 59.5305 74.8842 59.5305C75.4158 59.5305 75.8741 59.6342 76.2618 59.8388C76.6496 60.0434 77.0109 60.3665 77.3457 60.8053V60.5474C77.3457 60.2213 77.4251 59.9663 77.5866 59.7854C77.7452 59.6046 77.9538 59.5156 78.2035 59.5156C78.5648 59.5156 78.8057 59.6342 78.9232 59.8714C79.0436 60.1116 79.1023 60.4555 79.1023 60.9032ZM73.6769 63.2987C73.6769 64.0637 73.8414 64.6448 74.1733 65.0361C74.5052 65.4305 74.9341 65.6232 75.4599 65.6232C75.7713 65.6232 76.065 65.5402 76.3411 65.3712C76.6172 65.2022 76.8434 64.9472 77.0168 64.6092C77.1901 64.2712 77.2782 63.8591 77.2782 63.3729C77.2782 62.602 77.1107 62.0031 76.7729 61.5732C76.4381 61.1433 75.9945 60.9298 75.4452 60.9298C74.9106 60.9298 74.4817 61.1344 74.1586 61.5465C73.8384 61.9586 73.6769 62.5427 73.6769 63.2987Z" fill="#1CD4E0"/>
<path d="M81.9488 58.6313C81.6874 58.6313 81.4641 58.5513 81.2791 58.3882C81.094 58.2251 81 57.9968 81 57.7033C81 57.4365 81.094 57.2141 81.2849 57.0422C81.4759 56.8702 81.6962 56.7812 81.9488 56.7812C82.1897 56.7812 82.4041 56.8583 82.5921 57.0184C82.7801 57.1756 82.8741 57.4039 82.8741 57.7033C82.8741 57.9939 82.783 58.2222 82.598 58.3852C82.4188 58.5513 82.2014 58.6313 81.9488 58.6313ZM82.8741 60.5851V66.0463C82.8741 66.4258 82.786 66.7105 82.6068 66.9061C82.4276 67.0989 82.2014 67.1967 81.9282 67.1967C81.6551 67.1967 81.4318 67.0989 81.2585 66.9002C81.0881 66.7016 81 66.4169 81 66.0493V60.6415C81 60.2679 81.0852 59.9862 81.2585 59.7965C81.4289 59.6067 81.6521 59.5119 81.9282 59.5119C82.2044 59.5119 82.4276 59.6067 82.6068 59.7965C82.786 59.9862 82.8741 60.2471 82.8741 60.5851Z" fill="#1CD4E0"/>
<path d="M84.9085 59.674H85.1142V58.5385C85.1142 58.2331 85.123 57.9959 85.1377 57.821C85.1553 57.6491 85.1994 57.4979 85.2728 57.3733C85.3462 57.2429 85.452 57.1391 85.5871 57.0591C85.7252 56.979 85.8779 56.9375 86.0453 56.9375C86.2833 56.9375 86.4977 57.0264 86.6916 57.2073C86.8179 57.3259 86.9001 57.4741 86.9354 57.6461C86.9706 57.8181 86.9853 58.0641 86.9853 58.3843V59.6711H87.6727C87.9371 59.6711 88.1398 59.7363 88.2808 59.8608C88.4218 59.9883 88.4893 60.1514 88.4893 60.35C88.4893 60.605 88.3894 60.7829 88.1897 60.8837C87.9899 60.9845 87.705 61.0349 87.3349 61.0349H86.9853V64.5097C86.9853 64.8062 86.9971 65.0315 87.0176 65.1916C87.0382 65.3517 87.0911 65.4792 87.1821 65.58C87.2703 65.6808 87.4171 65.7282 87.6169 65.7282C87.7256 65.7282 87.8754 65.7075 88.0634 65.6689C88.2514 65.6304 88.3983 65.6096 88.5011 65.6096C88.6509 65.6096 88.7889 65.6719 88.9094 65.7934C89.0298 65.915 89.0915 66.0662 89.0915 66.2471C89.0915 66.5524 88.927 66.7837 88.598 66.9468C88.269 67.1069 87.7961 67.1899 87.1792 67.1899C86.5947 67.1899 86.1511 67.092 85.8485 66.8934C85.546 66.6948 85.3492 66.419 85.2552 66.0692C85.1612 65.7193 85.1142 65.2509 85.1142 64.6638V61.0349H84.8674C84.5972 61.0349 84.3916 60.9697 84.2506 60.8422C84.1096 60.7117 84.0391 60.5487 84.0391 60.35C84.0391 60.1514 84.1125 59.9883 84.2623 59.8608C84.4092 59.7363 84.6236 59.674 84.9085 59.674Z" fill="#1CD4E0"/>
<path d="M94.5156 66.1245C94.0632 66.4803 93.6255 66.7471 93.2025 66.925C92.7795 67.1029 92.3036 67.1918 91.7778 67.1918C91.299 67.1918 90.876 67.097 90.5118 66.9043C90.1476 66.7115 89.8685 66.4536 89.6717 66.1245C89.4749 65.7954 89.375 65.4426 89.375 65.0572C89.375 64.5413 89.5366 64.0995 89.8626 63.7349C90.1887 63.3702 90.6322 63.1241 91.1992 62.9996C91.3167 62.9729 91.6133 62.9106 92.0833 62.8128C92.5533 62.715 92.9587 62.629 93.2936 62.546C93.6284 62.4659 93.9956 62.3681 94.3892 62.2524C94.3657 61.7544 94.2659 61.3897 94.0896 61.1555C93.9134 60.9242 93.5491 60.8056 92.9969 60.8056C92.521 60.8056 92.1626 60.8738 91.9247 61.0072C91.6838 61.1406 91.4782 61.3422 91.3078 61.6091C91.1375 61.8759 91.0141 62.0538 90.9436 62.1398C90.8731 62.2258 90.7204 62.2673 90.4883 62.2673C90.2768 62.2673 90.0976 62.1991 89.9419 62.0627C89.7892 61.9263 89.7128 61.7514 89.7128 61.5409C89.7128 61.2088 89.8303 60.8857 90.0624 60.5714C90.2944 60.2571 90.6587 59.9992 91.1522 59.7976C91.6457 59.596 92.2625 59.4922 92.9969 59.4922C93.8194 59.4922 94.4656 59.59 94.9386 59.7857C95.4085 59.9814 95.7405 60.2927 95.9373 60.7167C96.1312 61.1406 96.2281 61.7039 96.2281 62.4066C96.2281 62.8513 96.2281 63.2249 96.2252 63.5362C96.2222 63.8446 96.2193 64.1885 96.2164 64.568C96.2164 64.9238 96.2751 65.2944 96.3926 65.6798C96.5101 66.0652 96.5688 66.3143 96.5688 66.424C96.5688 66.6167 96.4778 66.7946 96.2986 66.9547C96.1194 67.1148 95.9138 67.1918 95.6847 67.1918C95.4937 67.1918 95.3028 67.0999 95.1148 66.9191C94.9239 66.7353 94.7271 66.4714 94.5156 66.1245ZM94.3922 63.3909C94.1161 63.4917 93.7195 63.6014 93.1937 63.7141C92.6708 63.8268 92.3066 63.9098 92.1068 63.9631C91.9042 64.0165 91.7132 64.1203 91.5311 64.2745C91.349 64.4286 91.2579 64.6451 91.2579 64.9208C91.2579 65.2054 91.3666 65.4515 91.581 65.6501C91.7955 65.8517 92.0775 65.9525 92.4241 65.9525C92.7942 65.9525 93.1379 65.8695 93.4493 65.7065C93.7636 65.5434 93.9927 65.3329 94.1396 65.072C94.3099 64.7844 94.3922 64.316 94.3922 63.6607V63.3909Z" fill="#1CD4E0"/>
<path d="M98.1328 66.0434V57.8457C98.1328 57.4662 98.2151 57.1815 98.3825 56.9859C98.5499 56.7932 98.7732 56.6953 99.0581 56.6953C99.3401 56.6953 99.5692 56.7902 99.7425 56.9829C99.9159 57.1756 100.004 57.4602 100.004 57.8457V66.0434C100.004 66.4259 99.9159 66.7135 99.7396 66.9062C99.5634 67.0989 99.3342 67.1938 99.0581 67.1938C98.7849 67.1938 98.5617 67.0959 98.3884 66.8973C98.218 66.6986 98.1328 66.414 98.1328 66.0434Z" fill="#1CD4E0"/>
<path d="M29.9332 42.9533L17.264 10.4203C15.7424 6.51559 17.6635 2.06242 21.535 0.529601C25.4037 -1.00618 29.8157 0.932818 31.3344 4.8375L44.0037 37.3706C45.5253 41.2752 43.6042 45.7284 39.7326 47.2642C35.8669 48.8 31.4548 46.858 29.9332 42.9533Z" fill="#1CD4E0"/>
<path d="M55.3364 42.9533L42.6671 10.4203C41.1455 6.51559 43.0666 2.06242 46.9382 0.526636C50.8068 -1.00914 55.2189 0.929853 56.7405 4.8375L69.4098 37.3706C70.9314 41.2752 69.0103 45.7284 65.1387 47.2642C61.2701 48.8 56.858 46.858 55.3364 42.9533Z" fill="#1CD4E0"/>
<path d="M73.8571 26.0419C74.1597 26.8484 75.0908 27.2042 75.8458 26.8009C81.8911 23.5811 84.7551 16.2462 82.2788 9.62569C79.7966 2.99634 72.8319 -0.594069 66.1815 1.03659C65.362 1.2382 64.9125 2.13061 65.2092 2.92815L73.8571 26.0419Z" fill="#1CD4E0"/>
</svg>
