<svg width="40" height="40" viewBox="0 0 40 40" fill="none" xmlns="http://www.w3.org/2000/svg">
<rect width="40" height="40" rx="20" fill="#007DFF"/>
<path d="M13.5821 21.8339C14.0884 21.8339 14.4988 21.4235 14.4988 20.9172C14.4988 20.4109 14.0884 20.0005 13.5821 20.0005C13.0758 20.0005 12.6654 20.4109 12.6654 20.9172C12.6654 21.4235 13.0758 21.8339 13.5821 21.8339Z" fill="white"/>
<path d="M9.9167 18.1642C10.423 18.1642 10.8334 17.7538 10.8334 17.2475C10.8334 16.7412 10.423 16.3308 9.9167 16.3308C9.41042 16.3308 9 16.7412 9 17.2475C9 17.7538 9.41042 18.1642 9.9167 18.1642Z" fill="white"/>
<path d="M13.5821 14.5031C14.0884 14.5031 14.4988 14.0927 14.4988 13.5864C14.4988 13.0801 14.0884 12.6697 13.5821 12.6697C13.0758 12.6697 12.6654 13.0801 12.6654 13.5864C12.6654 14.0927 13.0758 14.5031 13.5821 14.5031Z" fill="white"/>
<path d="M9.9167 10.8334C10.423 10.8334 10.8334 10.423 10.8334 9.9167C10.8334 9.41042 10.423 9 9.9167 9C9.41042 9 9 9.41042 9 9.9167C9 10.423 9.41042 10.8334 9.9167 10.8334Z" fill="white"/>
<path d="M30.0871 21.8339C30.5934 21.8339 31.0038 21.4235 31.0038 20.9172C31.0038 20.4109 30.5934 20.0005 30.0871 20.0005C29.5808 20.0005 29.1704 20.4109 29.1704 20.9172C29.1704 21.4235 29.5808 21.8339 30.0871 21.8339Z" fill="white"/>
<path d="M26.4174 18.1642C26.9237 18.1642 27.3341 17.7538 27.3341 17.2475C27.3341 16.7412 26.9237 16.3308 26.4174 16.3308C25.9112 16.3308 25.5007 16.7412 25.5007 17.2475C25.5007 17.7538 25.9112 18.1642 26.4174 18.1642Z" fill="white"/>
<path d="M30.0871 14.5031C30.5934 14.5031 31.0038 14.0927 31.0038 13.5864C31.0038 13.0801 30.5934 12.6697 30.0871 12.6697C29.5808 12.6697 29.1704 13.0801 29.1704 13.5864C29.1704 14.0927 29.5808 14.5031 30.0871 14.5031Z" fill="white"/>
<path d="M26.4174 10.8334C26.9237 10.8334 27.3341 10.423 27.3341 9.9167C27.3341 9.41042 26.9237 9 26.4174 9C25.9112 9 25.5007 9.41042 25.5007 9.9167C25.5007 10.423 25.9112 10.8334 26.4174 10.8334Z" fill="white"/>
<path d="M21.8325 31.0038C22.3388 31.0038 22.7492 30.5934 22.7492 30.0871C22.7492 29.5808 22.3388 29.1704 21.8325 29.1704C21.3262 29.1704 20.9158 29.5808 20.9158 30.0871C20.9158 30.5934 21.3262 31.0038 21.8325 31.0038Z" fill="white"/>
<path d="M18.1671 27.3341C18.6734 27.3341 19.0838 26.9237 19.0838 26.4174C19.0838 25.9112 18.6734 25.5007 18.1671 25.5007C17.6608 25.5007 17.2504 25.9112 17.2504 26.4174C17.2504 26.9237 17.6608 27.3341 18.1671 27.3341Z" fill="white"/>
<path d="M21.8325 23.6645C22.3388 23.6645 22.7492 23.254 22.7492 22.7478C22.7492 22.2415 22.3388 21.8311 21.8325 21.8311C21.3262 21.8311 20.9158 22.2415 20.9158 22.7478C20.9158 23.254 21.3262 23.6645 21.8325 23.6645Z" fill="white"/>
<path d="M18.1671 20.0033C18.6734 20.0033 19.0838 19.5929 19.0838 19.0866C19.0838 18.5803 18.6734 18.1699 18.1671 18.1699C17.6608 18.1699 17.2504 18.5803 17.2504 19.0866C17.2504 19.5929 17.6608 20.0033 18.1671 20.0033Z" fill="white"/>
<path d="M22.752 11.7501C22.2658 11.7501 21.7994 11.557 21.4556 11.2131C21.1118 10.8693 20.9186 10.403 20.9186 9.9167C20.9186 9.67358 20.822 9.44041 20.6501 9.2685C20.4782 9.09658 20.245 9 20.0019 9C19.7588 9 19.5256 9.09658 19.3537 9.2685C19.1818 9.44041 19.0852 9.67358 19.0852 9.9167C19.0852 10.403 18.892 10.8693 18.5482 11.2131C18.2044 11.557 17.738 11.7501 17.2518 11.7501C17.0087 11.7501 16.7755 11.8467 16.6036 12.0186C16.4317 12.1905 16.3351 12.4237 16.3351 12.6668C16.3351 12.9099 16.4317 13.1431 16.6036 13.315C16.7755 13.4869 17.0087 13.5835 17.2518 13.5835C17.738 13.5835 18.2044 13.7767 18.5482 14.1205C18.892 14.4643 19.0852 14.9307 19.0852 15.4169C19.0852 15.6601 19.1818 15.8932 19.3537 16.0651C19.5256 16.2371 19.7588 16.3336 20.0019 16.3336C20.245 16.3336 20.4782 16.2371 20.6501 16.0651C20.822 15.8932 20.9186 15.6601 20.9186 15.4169C20.9186 14.9307 21.1118 14.4643 21.4556 14.1205C21.7994 13.7767 22.2658 13.5835 22.752 13.5835C22.9951 13.5835 23.2283 13.4869 23.4002 13.315C23.5721 13.1431 23.6687 12.9099 23.6687 12.6668C23.6687 12.4237 23.5721 12.1905 23.4002 12.0186C23.2283 11.8467 22.9951 11.7501 22.752 11.7501Z" fill="white"/>
<path d="M15.4169 26.4203C14.9307 26.4203 14.4643 26.2271 14.1205 25.8833C13.7767 25.5395 13.5835 25.0731 13.5835 24.5869C13.5835 24.3437 13.4869 24.1106 13.315 23.9387C13.1431 23.7667 12.9099 23.6702 12.6668 23.6702C12.4237 23.6702 12.1905 23.7667 12.0186 23.9387C11.8467 24.1106 11.7501 24.3437 11.7501 24.5869C11.7501 25.0731 11.557 25.5395 11.2131 25.8833C10.8693 26.2271 10.403 26.4203 9.9167 26.4203C9.67358 26.4203 9.44041 26.5169 9.2685 26.6888C9.09658 26.8607 9 27.0939 9 27.337C9 27.5801 9.09658 27.8133 9.2685 27.9852C9.44041 28.1571 9.67358 28.2537 9.9167 28.2537C10.403 28.2537 10.8693 28.4469 11.2131 28.7907C11.557 29.1345 11.7501 29.6008 11.7501 30.0871C11.7501 30.3302 11.8467 30.5634 12.0186 30.7353C12.1905 30.9072 12.4237 31.0038 12.6668 31.0038C12.9099 31.0038 13.1431 30.9072 13.315 30.7353C13.4869 30.5634 13.5835 30.3302 13.5835 30.0871C13.5835 29.6008 13.7767 29.1345 14.1205 28.7907C14.4643 28.4469 14.9307 28.2537 15.4169 28.2537C15.6601 28.2537 15.8932 28.1571 16.0651 27.9852C16.2371 27.8133 16.3336 27.5801 16.3336 27.337C16.3336 27.0939 16.2371 26.8607 16.0651 26.6888C15.8932 26.5169 15.6601 26.4203 15.4169 26.4203Z" fill="white"/>
<path d="M30.0828 26.4203C29.5966 26.4203 29.1302 26.2271 28.7864 25.8833C28.4426 25.5395 28.2494 25.0731 28.2494 24.5869C28.2494 24.3437 28.1528 24.1106 27.9809 23.9387C27.809 23.7667 27.5758 23.6702 27.3327 23.6702C27.0896 23.6702 26.8564 23.7667 26.6845 23.9387C26.5126 24.1106 26.416 24.3437 26.416 24.5869C26.416 25.0731 26.2228 25.5395 25.879 25.8833C25.5352 26.2271 25.0688 26.4203 24.5826 26.4203C24.3395 26.4203 24.1063 26.5169 23.9344 26.6888C23.7625 26.8607 23.6659 27.0939 23.6659 27.337C23.6659 27.5801 23.7625 27.8133 23.9344 27.9852C24.1063 28.1571 24.3395 28.2537 24.5826 28.2537C25.0688 28.2537 25.5352 28.4469 25.879 28.7907C26.2228 29.1345 26.416 29.6008 26.416 30.0871C26.416 30.3302 26.5126 30.5634 26.6845 30.7353C26.8564 30.9072 27.0896 31.0038 27.3327 31.0038C27.5758 31.0038 27.809 30.9072 27.9809 30.7353C28.1528 30.5634 28.2494 30.3302 28.2494 30.0871C28.2494 29.6008 28.4426 29.1345 28.7864 28.7907C29.1302 28.4469 29.5966 28.2537 30.0828 28.2537C30.326 28.2537 30.5591 28.1571 30.731 27.9852C30.903 27.8133 30.9995 27.5801 30.9995 27.337C30.9995 27.0939 30.903 26.8607 30.731 26.6888C30.5591 26.5169 30.326 26.4203 30.0828 26.4203Z" fill="white"/>
</svg>
