<svg width="16" height="18" viewBox="0 0 16 18" fill="none" xmlns="http://www.w3.org/2000/svg">
<path d="M10.625 13.4444H15L13.7707 12.1956C13.4373 11.8569 13.25 11.3976 13.25 10.9186V8.11111C13.25 5.78895 11.7891 3.81341 9.75 3.08126V2.77778C9.75 1.79594 8.9665 1 8 1C7.0335 1 6.25 1.79594 6.25 2.77778V3.08126C4.21091 3.81341 2.75 5.78895 2.75 8.11111V10.9186C2.75 11.3976 2.5627 11.8569 2.22932 12.1956L1 13.4444H5.375M10.625 13.4444V14.3333C10.625 15.8061 9.44975 17 8 17C6.55025 17 5.375 15.8061 5.375 14.3333V13.4444M10.625 13.4444H5.375" stroke="#3F3F46" stroke-width="0.6" stroke-linecap="round" stroke-linejoin="round"/>
<ellipse cx="11.9184" cy="4.03656" rx="2.52" ry="2.56" fill="#D51212"/>
</svg>
