<svg width="16" height="16" viewBox="0 0 16 16" fill="none" xmlns="http://www.w3.org/2000/svg">
<path fill-rule="evenodd" clip-rule="evenodd" d="M3.4946 0.332794C3.8029 0.0244853 4.30277 0.0244853 4.61108 0.332794L8.00032 3.72204L9.40411 2.31825C9.40791 2.3143 9.41175 2.31037 9.41565 2.30648C9.41954 2.30258 9.42347 2.29874 9.42742 2.29494L10.5999 1.12251C11.1667 0.555688 11.9354 0.237253 12.737 0.237253C13.5386 0.237253 14.3074 0.555688 14.8742 1.12251C15.4411 1.68932 15.7595 2.4581 15.7595 3.2597C15.7595 4.0613 15.4411 4.83007 14.8742 5.39689L12.2747 7.99642L15.6637 11.3854C15.972 11.6937 15.972 12.1936 15.6637 12.5019L12.5058 15.6598C12.1975 15.9681 11.6976 15.9681 11.3893 15.6598L9.41611 13.6866C9.41596 13.6864 9.4158 13.6863 9.41565 13.6861C9.41549 13.686 9.41534 13.6858 9.41518 13.6857L8.00033 12.2708L4.61108 15.66C4.46302 15.8081 4.26222 15.8913 4.05284 15.8913H0.894942C0.458928 15.8913 0.105469 15.5378 0.105469 15.1018V11.9439C0.105469 11.7345 0.188645 11.5337 0.3367 11.3857L3.72595 7.99642L2.31064 6.58112C2.31056 6.58103 2.31047 6.58094 2.31038 6.58086C2.3103 6.58077 2.31021 6.58069 2.31013 6.5806L0.3367 4.60717C0.0283916 4.29886 0.0283916 3.799 0.3367 3.49069L3.4946 0.332794ZM3.98511 6.02262L4.61108 5.39665C4.91939 5.08834 4.91939 4.58847 4.61108 4.28016C4.30277 3.97185 3.8029 3.97185 3.4946 4.28016L2.86863 4.90613L2.01143 4.04893L4.05284 2.00752L6.88384 4.83852L4.84243 6.87994L3.98511 6.02262ZM7.45371 10.5844C7.44976 10.5882 7.44585 10.5921 7.44196 10.596C7.43808 10.5998 7.43424 10.6038 7.43046 10.6077L3.72583 14.3123H1.68442V12.2709L9.97401 3.98132L12.0154 6.02273L10.6116 7.42654C10.6077 7.43033 10.6037 7.43417 10.5999 7.43806C10.596 7.44194 10.5921 7.44586 10.5883 7.44981L7.45371 10.5844ZM9.11681 11.1543L9.97389 12.0114L10.5999 11.3854C10.9082 11.0771 11.408 11.0771 11.7163 11.3854C12.0247 11.6937 12.0247 12.1936 11.7163 12.5019L11.0904 13.1279L11.9476 13.9851L13.989 11.9437L11.1582 9.1129L9.11681 11.1543ZM13.1319 4.90625L13.7578 4.2804C14.0285 4.00969 14.1805 3.64254 14.1805 3.2597C14.1805 2.87686 14.0285 2.5097 13.7578 2.23899C13.487 1.96828 13.1199 1.8162 12.737 1.8162C12.3542 1.8162 11.9871 1.96828 11.7163 2.23899L11.0905 2.86484L13.1319 4.90625Z" fill="#007DFF"/>
</svg>
