<svg xmlns="http://www.w3.org/2000/svg" width="41" height="40" viewBox="0 0 41 40" fill="none"><rect x="0.304688" width="40" height="40" rx="20" fill="#2F65D4"></rect><path d="M28.5781 29.625H11.0781C10.1156 29.625 9.32812 28.8375 9.32812 27.875V16.5C9.32812 15.5375 10.1156 14.75 11.0781 14.75H28.5781C29.5406 14.75 30.3281 15.5375 30.3281 16.5V27.875C30.3281 28.8375 29.5406 29.625 28.5781 29.625Z" stroke="white" stroke-width="1.5" stroke-miterlimit="10" stroke-linecap="round" stroke-linejoin="round"></path><path d="M25.6031 21.75H14.0531C11.4281 21.75 9.32812 19.65 9.32812 17.025V16.5C9.32812 15.5375 10.1156 14.75 11.0781 14.75H28.5781C29.5406 14.75 30.3281 15.5375 30.3281 16.5V17.025C30.3281 19.65 28.2281 21.75 25.6031 21.75Z" stroke="white" stroke-width="1.5" stroke-miterlimit="10" stroke-linecap="round" stroke-linejoin="round"></path><path d="M14.5781 23.5V21.75" stroke="white" stroke-width="1.5" stroke-miterlimit="10" stroke-linecap="round" stroke-linejoin="round"></path><path d="M25.0781 23.5V21.75" stroke="white" stroke-width="1.5" stroke-miterlimit="10" stroke-linecap="round" stroke-linejoin="round"></path><path d="M13.9688 14.75C14.7562 12.2125 17.0312 10.375 19.8312 10.375C22.6312 10.375 24.9063 12.2125 25.6938 14.75" stroke="white" stroke-width="1.5" stroke-miterlimit="10" stroke-linecap="round" stroke-linejoin="round"></path></svg>