<svg width="40" height="40" viewBox="0 0 40 40" fill="none" xmlns="http://www.w3.org/2000/svg">
<rect width="40" height="40" rx="20" fill="#007DFF"/>
<path d="M27.7917 9H23.6667C22.6556 9 21.8333 9.82225 21.8333 10.8333V12.4696C21.8333 12.6144 21.9021 12.7519 22.0185 12.8372C22.1349 12.9252 22.2853 12.9508 22.4246 12.9078C22.97 12.7409 23.4503 12.6658 23.6657 12.6658C24.1708 12.6658 24.5824 13.0764 24.5824 13.5824C24.5824 14.0884 24.1708 14.4991 23.6657 14.4991C23.4503 14.4991 22.97 14.4239 22.4246 14.2571C22.2843 14.214 22.1349 14.2387 22.0185 14.3277C21.9021 14.4138 21.8333 14.5504 21.8333 14.6953V16.3315C21.8333 17.3426 22.6556 18.1648 23.6667 18.1648H24.708C24.6292 18.5214 24.5833 18.8468 24.5833 19.0815C24.5833 20.0926 25.4056 20.9148 26.4167 20.9148C27.4277 20.9148 28.25 20.0926 28.25 19.0815C28.25 18.8468 28.2042 18.5214 28.1253 18.1648H29.1667C30.1777 18.1648 31 17.3426 31 16.3315V12.2083C31 10.4392 29.5608 9 27.7917 9ZM30.0833 16.3333C30.0833 16.8393 29.6718 17.25 29.1667 17.25H27.5304C27.3856 17.25 27.249 17.3187 27.1619 17.4352C27.0758 17.5516 27.0492 17.7028 27.0913 17.8413C27.2572 18.3867 27.3324 18.867 27.3324 19.0824C27.3324 19.5884 26.9208 19.9991 26.4158 19.9991C25.9107 19.9991 25.4991 19.5884 25.4991 19.0824C25.4991 18.867 25.5752 18.3858 25.7402 17.8413C25.7823 17.7028 25.7567 17.5516 25.6696 17.4352C25.5825 17.3187 25.4459 17.25 25.3011 17.25H23.6648C23.1597 17.25 22.7482 16.8393 22.7482 16.3333V15.2911C23.1048 15.3708 23.4311 15.4167 23.6648 15.4167C24.6759 15.4167 25.4982 14.5944 25.4982 13.5833C25.4982 12.5723 24.6759 11.75 23.6648 11.75C23.4311 11.75 23.1048 11.7958 22.7482 11.8756V10.8333C22.7482 10.3273 23.1597 9.91667 23.6648 9.91667H27.7898C29.053 9.91667 30.0815 10.9443 30.0815 12.2083V16.3333H30.0833ZM24.5833 21.8333H22.9471C22.8023 21.8333 22.6657 21.9021 22.5786 22.0185C22.4924 22.1349 22.4658 22.2862 22.508 22.4246C22.6739 22.97 22.7491 23.4503 22.7491 23.6657C22.7491 24.1718 22.3375 24.5824 21.8324 24.5824C21.3273 24.5824 20.9157 24.1718 20.9157 23.6657C20.9157 23.4503 20.9918 22.9691 21.1568 22.4246C21.199 22.2862 21.1733 22.1349 21.0863 22.0185C20.9992 21.9021 20.8626 21.8333 20.7178 21.8333H18.1648V15.4167C18.1648 14.4056 17.3426 13.5833 16.3315 13.5833H12.2083C10.4392 13.5833 9 15.0225 9 16.7917V27.7917C9 29.5608 10.4392 31 12.2083 31H23.2083C24.9775 31 26.4167 29.5608 26.4167 27.7917V23.6667C26.4167 22.6556 25.5944 21.8333 24.5833 21.8333ZM9.91667 16.7917C9.91667 15.5276 10.9452 14.5 12.2083 14.5H16.3333C16.8384 14.5 17.25 14.9107 17.25 15.4167V21.8333H15.292C15.3708 21.4768 15.4167 21.1513 15.4167 20.9167C15.4167 19.9056 14.5944 19.0833 13.5833 19.0833C12.5723 19.0833 11.75 19.9056 11.75 20.9167C11.75 21.1513 11.7958 21.4768 11.8747 21.8333H9.91667V16.7917ZM17.25 30.0833H12.2083C10.9452 30.0833 9.91667 29.0557 9.91667 27.7917V22.75H12.4696C12.6144 22.75 12.751 22.6813 12.8381 22.5648C12.9242 22.4484 12.9508 22.2972 12.9087 22.1587C12.7427 21.6133 12.6676 21.133 12.6676 20.9176C12.6676 20.4116 13.0792 20.0009 13.5842 20.0009C14.0893 20.0009 14.5009 20.4116 14.5009 20.9176C14.5009 21.133 14.4248 21.6143 14.2598 22.1587C14.2177 22.2972 14.2433 22.4484 14.3304 22.5648C14.4175 22.6813 14.5541 22.75 14.6989 22.75H17.2518V24.7089C16.8952 24.6292 16.5689 24.5833 16.3352 24.5833C15.3241 24.5833 14.5018 25.4056 14.5018 26.4167C14.5018 27.4277 15.3241 28.25 16.3352 28.25C16.5689 28.25 16.8952 28.2042 17.2518 28.1244V30.0833H17.25ZM25.5 27.7917C25.5 29.0557 24.4715 30.0833 23.2083 30.0833H18.1667V27.5304C18.1667 27.3856 18.0979 27.2481 17.9815 27.1628C17.8651 27.0748 17.7138 27.0501 17.5754 27.0923C17.03 27.2591 16.5497 27.3342 16.3343 27.3342C15.8292 27.3342 15.4176 26.9236 15.4176 26.4176C15.4176 25.9116 15.8292 25.5009 16.3343 25.5009C16.5497 25.5009 17.03 25.5761 17.5754 25.7429C17.7138 25.7842 17.8642 25.7594 17.9815 25.6723C18.0979 25.5862 18.1667 25.4496 18.1667 25.3048V22.7518H20.1247C20.0458 23.1084 20 23.4338 20 23.6685C20 24.6796 20.8223 25.5018 21.8333 25.5018C22.8444 25.5018 23.6667 24.6796 23.6667 23.6685C23.6667 23.4338 23.6208 23.1084 23.542 22.7518H24.5833C25.0884 22.7518 25.5 23.1625 25.5 23.6685V27.7935V27.7917Z" fill="white"/>
</svg>
