<svg width="100" height="70" viewBox="0 0 100 70" fill="none" xmlns="http://www.w3.org/2000/svg">
<path d="M7.97815 65.1769L6.35373 58.7768L4.70875 65.1769C4.5795 65.6635 4.47963 66.0097 4.40325 66.2218C4.32688 66.4339 4.19763 66.621 4.00963 66.7894C3.82164 66.9578 3.57195 67.0421 3.26058 67.0421C3.00796 67.0421 2.80234 66.9922 2.64078 66.8923C2.47922 66.7925 2.34703 66.6522 2.24716 66.4713C2.14728 66.2904 2.06504 66.0721 2.00041 65.8225C1.93579 65.573 1.87998 65.3391 1.83004 65.127L0.155685 57.9378C0.0499368 57.5199 0 57.2018 0 56.9834C0 56.7059 0.0910613 56.4751 0.273184 56.2848C0.455307 56.0945 0.681491 56.001 0.951738 56.001C1.32186 56.001 1.57154 56.1257 1.69785 56.3784C1.8271 56.631 1.93872 56.9959 2.03566 57.4794L3.35164 63.7141L4.82625 57.8817C4.93494 57.4357 5.03481 57.0957 5.12 56.8618C5.20812 56.6279 5.34912 56.4283 5.54593 56.2567C5.74274 56.0852 6.01005 56.001 6.34786 56.001C6.69154 56.001 6.95591 56.0883 7.14684 56.2661C7.33778 56.4439 7.46703 56.6372 7.54046 56.8462C7.6139 57.0552 7.71084 57.3983 7.83421 57.8817L9.3235 63.7141L10.6395 57.4794C10.7041 57.155 10.7629 56.8992 10.8216 56.7152C10.8774 56.5312 10.9773 56.3659 11.1154 56.2193C11.2564 56.0758 11.459 56.001 11.7234 56.001C11.9878 56.001 12.214 56.0945 12.399 56.2817C12.5841 56.4688 12.6781 56.7027 12.6781 56.9834C12.6781 57.1831 12.6281 57.5012 12.5283 57.9378L10.8539 65.127C10.7394 65.6136 10.6454 65.9691 10.569 66.1937C10.4926 66.4183 10.3663 66.6179 10.1842 66.7863C10.0021 66.9578 9.74944 67.0421 9.42044 67.0421C9.10907 67.0421 8.85938 66.961 8.67432 66.7957C8.48633 66.6304 8.35708 66.4463 8.28364 66.2374C8.21314 66.0315 8.11033 65.676 7.97815 65.1769Z" fill="#1CD4E0"/>
<path d="M18.7862 63.4844H15.1232C15.1291 63.9366 15.2143 64.3327 15.3817 64.6789C15.5492 65.0251 15.7695 65.284 16.0456 65.4587C16.3217 65.6333 16.6272 65.7206 16.9621 65.7206C17.1853 65.7206 17.3909 65.6926 17.576 65.6364C17.7611 65.5803 17.9403 65.493 18.1136 65.3744C18.2869 65.2559 18.4484 65.128 18.5924 64.9908C18.7392 64.8567 18.9272 64.6696 19.1622 64.4388C19.2592 64.3514 19.3943 64.3078 19.5735 64.3078C19.7644 64.3078 19.9201 64.3639 20.0405 64.4762C20.158 64.5885 20.2197 64.7444 20.2197 64.9503C20.2197 65.1312 20.1522 65.3401 20.02 65.5803C19.8878 65.8204 19.688 66.0513 19.4207 66.2727C19.1534 66.4941 18.8186 66.6782 18.4132 66.8216C18.0078 66.9682 17.5437 67.04 17.0179 67.04C15.8135 67.04 14.8794 66.675 14.2126 65.9483C13.5458 65.2216 13.2109 64.2329 13.2109 62.9853C13.2109 62.399 13.2932 61.8531 13.4577 61.351C13.6222 60.8488 13.8631 60.4184 14.1774 60.0598C14.4917 59.7011 14.8824 59.4235 15.3435 59.2332C15.8047 59.043 16.3188 58.9463 16.8798 58.9463C17.6113 58.9463 18.2399 59.1085 18.7627 59.4391C19.2856 59.7666 19.6792 60.1907 19.9407 60.7085C20.2021 61.2294 20.3313 61.7565 20.3313 62.296C20.3313 62.7951 20.1962 63.1194 19.926 63.2692C19.6528 63.4126 19.2739 63.4844 18.7862 63.4844ZM15.1232 62.3553H18.5189C18.4719 61.6754 18.3016 61.167 18.0019 60.8301C17.7023 60.4933 17.3087 60.3249 16.8181 60.3249C16.3511 60.3249 15.9692 60.4964 15.6696 60.8395C15.367 61.1795 15.1849 61.6878 15.1232 62.3553Z" fill="#1CD4E0"/>
<path d="M23.4432 57.1332V60.171C23.7957 59.7843 24.154 59.4848 24.5212 59.279C24.8855 59.0731 25.3408 58.9702 25.8783 58.9702C26.5011 58.9702 27.0445 59.1262 27.5145 59.4412C27.9845 59.7562 28.3458 60.2084 28.6043 60.8042C28.8628 61.3999 28.992 62.1048 28.992 62.9188C28.992 63.5208 28.9215 64.0728 28.7747 64.575C28.6307 65.0771 28.4222 65.5138 28.146 65.8818C27.8729 66.2498 27.538 66.5368 27.1473 66.7364C26.7566 66.9391 26.3248 67.0389 25.8548 67.0389C25.5669 67.0389 25.2967 67.0046 25.0411 66.9298C24.7885 66.858 24.5712 66.7613 24.392 66.6428C24.2128 66.5243 24.063 66.4027 23.9367 66.2748C23.8103 66.1469 23.6459 65.9598 23.4402 65.7071V65.9036C23.4402 66.2779 23.355 66.5586 23.1876 66.752C23.0172 66.9454 22.8028 67.0389 22.5443 67.0389C22.2799 67.0389 22.0684 66.9422 21.9098 66.752C21.7512 66.5617 21.6719 66.2779 21.6719 65.9036V57.2236C21.6719 56.8213 21.7482 56.5156 21.901 56.3098C22.0537 56.1039 22.2682 56.001 22.5414 56.001C22.8292 56.001 23.0525 56.1008 23.2052 56.2973C23.3668 56.4907 23.4432 56.7682 23.4432 57.1332ZM23.5342 63.0404C23.5342 63.8327 23.7046 64.4409 24.0453 64.865C24.3861 65.2892 24.8326 65.5013 25.3878 65.5013C25.8578 65.5013 26.2631 65.283 26.6039 64.8494C26.9446 64.4159 27.115 63.7921 27.115 62.9812C27.115 62.4572 27.0445 62.005 26.9035 61.6276C26.7625 61.247 26.5598 60.957 26.2984 60.748C26.0369 60.5422 25.7344 60.4392 25.3878 60.4392C25.0323 60.4392 24.7121 60.5422 24.4331 60.748C24.154 60.9539 23.9337 61.2533 23.7751 61.6432C23.6135 62.0361 23.5342 62.5009 23.5342 63.0404Z" fill="#1CD4E0"/>
<path d="M36.5199 64.4451C36.5199 64.9941 36.3936 65.465 36.1439 65.8549C35.8913 66.2448 35.5212 66.5411 35.0306 66.7438C34.5401 66.9465 33.9408 67.0464 33.2358 67.0464C32.5632 67.0464 31.9874 66.9372 31.5086 66.7189C31.0298 66.5005 30.6744 66.2261 30.4452 65.8986C30.2161 65.5711 30.1016 65.2436 30.1016 64.913C30.1016 64.6947 30.175 64.5075 30.3219 64.3516C30.4687 64.1956 30.6538 64.1177 30.8771 64.1177C31.0739 64.1177 31.2237 64.1676 31.3294 64.2705C31.4352 64.3734 31.535 64.5169 31.632 64.7009C31.8229 65.0565 32.055 65.3216 32.3223 65.4962C32.5896 65.6709 32.9538 65.7582 33.415 65.7582C33.791 65.7582 34.0965 65.6709 34.3374 65.4931C34.5783 65.3153 34.6987 65.1126 34.6987 64.8849C34.6987 64.5356 34.5753 64.2798 34.3256 64.1208C34.0759 63.9617 33.6647 63.8058 33.0948 63.6623C32.4486 63.4907 31.9257 63.313 31.5204 63.1258C31.115 62.9387 30.7919 62.6923 30.551 62.3866C30.3101 62.081 30.1867 61.7036 30.1867 61.2576C30.1867 60.8584 30.2984 60.4841 30.5216 60.1285C30.7449 59.773 31.0768 59.4923 31.5115 59.2802C31.9463 59.0681 32.475 58.962 33.0919 58.962C33.5766 58.962 34.0113 59.0151 34.3991 59.1211C34.7868 59.2271 35.107 59.3706 35.3655 59.5515C35.624 59.7324 35.8208 59.9289 35.9559 60.1472C36.091 60.3656 36.1586 60.5808 36.1586 60.7897C36.1586 61.0174 36.0852 61.2046 35.9442 61.3512C35.8002 61.4977 35.5946 61.5695 35.3302 61.5695C35.1393 61.5695 34.9748 61.5102 34.8397 61.3948C34.7046 61.2794 34.5489 61.1048 34.3756 60.8708C34.2346 60.6775 34.0671 60.5215 33.8762 60.4061C33.6853 60.2876 33.4238 60.2314 33.0948 60.2314C32.757 60.2314 32.475 60.3094 32.2518 60.4622C32.0285 60.6151 31.9169 60.8053 31.9169 61.033C31.9169 61.242 31.9992 61.4135 32.1637 61.5476C32.3282 61.6818 32.5514 61.7909 32.8275 61.8783C33.1066 61.9656 33.4914 62.0716 33.979 62.1995C34.5606 62.3492 35.0336 62.5301 35.4037 62.7391C35.7709 62.9481 36.0499 63.1944 36.2409 63.4783C36.4259 63.759 36.5199 64.0802 36.5199 64.4451Z" fill="#1CD4E0"/>
<path d="M39.0504 58.041C38.7889 58.041 38.5657 57.9567 38.3806 57.7852C38.1956 57.6137 38.1016 57.3735 38.1016 57.0647C38.1016 56.784 38.1956 56.5501 38.3865 56.3692C38.5774 56.1883 38.7977 56.0947 39.0504 56.0947C39.2912 56.0947 39.5057 56.1758 39.6937 56.3442C39.8817 56.5095 39.9757 56.7497 39.9757 57.0647C39.9757 57.3704 39.8846 57.6105 39.7025 57.7821C39.5174 57.9567 39.3001 58.041 39.0504 58.041ZM39.9757 60.0963V65.8414C39.9757 66.2407 39.8875 66.5401 39.7084 66.7459C39.5292 66.9487 39.303 67.0516 39.0298 67.0516C38.7566 67.0516 38.5334 66.9487 38.3601 66.7397C38.1868 66.5307 38.1016 66.2313 38.1016 65.8446V60.1556C38.1016 59.7626 38.1868 59.4663 38.3601 59.2667C38.5304 59.0671 38.7537 58.9673 39.0298 58.9673C39.303 58.9673 39.5292 59.0671 39.7084 59.2667C39.8875 59.4663 39.9757 59.7408 39.9757 60.0963Z" fill="#1CD4E0"/>
<path d="M42.0257 59.1376H42.2314V57.943C42.2314 57.6218 42.2402 57.3723 42.2549 57.1882C42.2695 57.0073 42.3165 56.8483 42.39 56.7173C42.4634 56.58 42.5692 56.4709 42.7043 56.3867C42.8424 56.3025 42.9951 56.2588 43.1625 56.2588C43.4005 56.2588 43.6149 56.3524 43.8088 56.5426C43.938 56.6674 44.0173 56.8233 44.0526 57.0042C44.0878 57.1851 44.1025 57.444 44.1025 57.7808V59.1345H44.7899C45.0543 59.1345 45.2569 59.2031 45.3979 59.3341C45.536 59.4682 45.6065 59.6397 45.6065 59.8487C45.6065 60.1169 45.5066 60.3041 45.3069 60.4101C45.1071 60.5162 44.8222 60.5692 44.4521 60.5692H44.1025V64.2246C44.1025 64.5365 44.1143 64.7735 44.1348 64.9419C44.1554 65.1104 44.2112 65.2445 44.2993 65.3505C44.3875 65.4566 44.5343 65.5065 44.7341 65.5065C44.8428 65.5065 44.9926 65.4846 45.1806 65.4441C45.3686 65.4035 45.5154 65.3817 45.6183 65.3817C45.7681 65.3817 45.9061 65.4472 46.0266 65.5751C46.147 65.703 46.2087 65.862 46.2087 66.0523C46.2087 66.3735 46.0442 66.6168 45.7152 66.7884C45.3862 66.9568 44.9133 67.0441 44.2964 67.0441C43.7118 67.0441 43.2683 66.9412 42.9657 66.7322C42.6632 66.5232 42.4664 66.2332 42.3724 65.8652C42.2784 65.4971 42.2314 65.0043 42.2314 64.3868V60.5692H41.9846C41.7144 60.5692 41.5087 60.5006 41.3677 60.3664C41.2267 60.2292 41.1562 60.0577 41.1562 59.8487C41.1562 59.6397 41.2297 59.4682 41.3795 59.3341C41.5264 59.2031 41.7408 59.1376 42.0257 59.1376Z" fill="#1CD4E0"/>
<path d="M48.621 67.2896L48.7914 66.8467L46.4855 60.6868C46.3445 60.3313 46.274 60.0755 46.274 59.9164C46.274 59.7449 46.3151 59.5889 46.3974 59.4424C46.4796 59.2958 46.5942 59.1804 46.7352 59.093C46.8791 59.0057 47.0289 58.962 47.1846 58.962C47.4549 58.962 47.6575 59.0525 47.7956 59.2365C47.9337 59.4205 48.0541 59.6794 48.1598 60.0194L49.7431 64.913L51.2442 60.3624C51.3617 59.9944 51.4704 59.7043 51.5673 59.4954C51.6642 59.2864 51.7641 59.1461 51.8728 59.0743C51.9785 59.0026 52.1313 58.9652 52.3281 58.9652C52.4691 58.9652 52.6072 59.0057 52.7364 59.0837C52.8657 59.1648 52.9685 59.2708 53.039 59.408C53.1095 59.5453 53.1447 59.6888 53.1447 59.8385C53.1271 59.932 53.0948 60.063 53.0537 60.2315C53.0125 60.403 52.9626 60.5745 52.9038 60.7492L50.4628 67.536C50.2513 68.1349 50.0457 68.6027 49.8459 68.9427C49.6433 69.2826 49.3789 69.5446 49.047 69.7255C48.715 69.9064 48.2685 70 47.7075 70C47.1582 70 46.7469 69.9345 46.4737 69.8097C46.2006 69.685 46.0625 69.4542 46.0625 69.1173C46.0625 68.8896 46.1271 68.715 46.2593 68.5902C46.3886 68.4655 46.5824 68.4031 46.838 68.4031C46.9379 68.4031 47.0377 68.4187 47.1317 68.4468C47.2492 68.4748 47.355 68.4904 47.4402 68.4904C47.6546 68.4904 47.825 68.4561 47.9483 68.3875C48.0717 68.3189 48.1833 68.2004 48.2803 68.0351C48.3802 67.8635 48.4918 67.614 48.621 67.2896Z" fill="#1CD4E0"/>
<path d="M59.4047 56.1885H62.0601C62.7504 56.1885 63.3438 56.2571 63.8373 56.3912C64.3308 56.5284 64.7802 56.7811 65.1827 57.1554C66.2284 58.1066 66.7542 59.5538 66.7542 61.4969C66.7542 62.1363 66.7013 62.7227 66.5956 63.2529C66.4898 63.7831 66.3283 64.2603 66.108 64.6845C65.8876 65.1087 65.6086 65.4892 65.2649 65.8229C64.9947 66.0818 64.7009 66.2876 64.3807 66.4436C64.0605 66.5995 63.7169 66.7087 63.3467 66.7711C62.9796 66.8335 62.5624 66.8646 62.1013 66.8646H59.4458C59.0757 66.8646 58.7966 66.8054 58.6086 66.6869C58.4206 66.5683 58.2972 66.3999 58.2414 66.1847C58.1856 65.9695 58.1562 65.6888 58.1562 65.3426V57.514C58.1562 57.0493 58.2532 56.7093 58.45 56.5004C58.6468 56.2945 58.967 56.1885 59.4047 56.1885ZM60.1948 57.9008V65.1461H61.737C62.0748 65.1461 62.3392 65.1367 62.5331 65.118C62.724 65.0993 62.9237 65.0494 63.1294 64.9714C63.335 64.8935 63.5142 64.7843 63.664 64.6439C64.3455 64.0326 64.6862 62.9784 64.6862 61.4845C64.6862 60.4303 64.5364 59.6412 64.2368 59.1172C63.9372 58.5932 63.5671 58.2595 63.1294 58.116C62.6917 57.9725 62.16 57.9008 61.5373 57.9008H60.1948Z" fill="#1CD4E0"/>
<path d="M69.355 58.041C69.0936 58.041 68.8704 57.9567 68.6853 57.7852C68.5002 57.6137 68.4062 57.3735 68.4062 57.0647C68.4062 56.784 68.5002 56.5501 68.6912 56.3692C68.8821 56.1883 69.1024 56.0947 69.3521 56.0947C69.593 56.0947 69.8074 56.1758 69.9954 56.3442C70.1834 56.5095 70.2774 56.7497 70.2774 57.0647C70.2774 57.3704 70.1864 57.6105 70.0042 57.7821C69.825 57.9567 69.6077 58.041 69.355 58.041ZM70.2804 60.0963V65.8414C70.2804 66.2407 70.1922 66.5401 70.013 66.7459C69.8339 66.9487 69.6077 67.0516 69.3345 67.0516C69.0613 67.0516 68.8381 66.9487 68.6647 66.7397C68.4944 66.5307 68.4062 66.2313 68.4062 65.8446V60.1556C68.4062 59.7626 68.4914 59.4663 68.6647 59.2667C68.8351 59.0671 69.0584 58.9673 69.3345 58.9673C69.6077 58.9673 69.8339 59.0671 70.013 59.2667C70.1922 59.4663 70.2804 59.7408 70.2804 60.0963Z" fill="#1CD4E0"/>
<path d="M79.1023 60.4217V66.198C79.1023 66.8592 79.0348 67.4269 78.9026 67.9009C78.7704 68.375 78.556 68.7711 78.2652 69.0799C77.9714 69.3887 77.5896 69.6226 77.1166 69.7723C76.6437 69.922 76.0533 69.9969 75.3512 69.9969C74.705 69.9969 74.1322 69.9002 73.621 69.7099C73.1129 69.5166 72.7222 69.2702 72.449 68.9676C72.1758 68.6651 72.0377 68.3532 72.0377 68.0319C72.0377 67.7887 72.1171 67.5922 72.2698 67.4393C72.4255 67.2865 72.6135 67.2085 72.8338 67.2085C73.107 67.2085 73.3479 67.3364 73.5535 67.5953C73.6534 67.7263 73.7591 67.8604 73.8649 67.9914C73.9706 68.1255 74.091 68.2378 74.2203 68.3345C74.3495 68.428 74.5082 68.4998 74.6903 68.5466C74.8724 68.5934 75.0839 68.6152 75.3218 68.6152C75.8065 68.6152 76.1825 68.5434 76.4498 68.4C76.7171 68.2565 76.9051 68.0569 77.0138 67.798C77.1225 67.5423 77.1842 67.2647 77.2018 66.9715C77.2194 66.6783 77.2341 66.2042 77.2429 65.5555C76.9551 65.9828 76.6231 66.3072 76.2442 66.5317C75.8653 66.7563 75.4188 66.8655 74.8959 66.8655C74.2702 66.8655 73.7209 66.697 73.2539 66.3539C72.7839 66.014 72.4255 65.5368 72.1729 64.9255C71.9203 64.3142 71.7969 63.6062 71.7969 62.8077C71.7969 62.212 71.8733 61.6724 72.026 61.1921C72.1787 60.7118 72.3961 60.3063 72.6811 59.9757C72.9631 59.6451 73.292 59.3956 73.6622 59.2303C74.0323 59.0618 74.4406 58.9776 74.8842 58.9776C75.4158 58.9776 75.8741 59.0868 76.2618 59.302C76.6496 59.5172 77.0109 59.8572 77.3457 60.3188V60.0474C77.3457 59.7043 77.4251 59.4361 77.5866 59.2459C77.7452 59.0556 77.9538 58.962 78.2035 58.962C78.5648 58.962 78.8057 59.0868 78.9232 59.3363C79.0436 59.5889 79.1023 59.9507 79.1023 60.4217ZM73.6769 62.9418C73.6769 63.7465 73.8414 64.3578 74.1733 64.7695C74.5052 65.1843 74.9341 65.3871 75.4599 65.3871C75.7713 65.3871 76.065 65.2997 76.3411 65.122C76.6172 64.9442 76.8434 64.676 77.0168 64.3204C77.1901 63.9648 77.2782 63.5313 77.2782 63.0198C77.2782 62.2089 77.1107 61.5788 76.7729 61.1266C76.4381 60.6743 75.9945 60.4498 75.4452 60.4498C74.9106 60.4498 74.4817 60.665 74.1586 61.0985C73.8384 61.5321 73.6769 62.1465 73.6769 62.9418Z" fill="#1CD4E0"/>
<path d="M81.9488 58.041C81.6874 58.041 81.4641 57.9567 81.2791 57.7852C81.094 57.6137 81 57.3735 81 57.0647C81 56.784 81.094 56.5501 81.2849 56.3692C81.4759 56.1883 81.6962 56.0947 81.9488 56.0947C82.1897 56.0947 82.4041 56.1758 82.5921 56.3442C82.7801 56.5095 82.8741 56.7497 82.8741 57.0647C82.8741 57.3704 82.783 57.6105 82.598 57.7821C82.4188 57.9567 82.2014 58.041 81.9488 58.041ZM82.8741 60.0963V65.8414C82.8741 66.2407 82.786 66.5401 82.6068 66.7459C82.4276 66.9487 82.2014 67.0516 81.9282 67.0516C81.6551 67.0516 81.4318 66.9487 81.2585 66.7397C81.0881 66.5307 81 66.2313 81 65.8446V60.1556C81 59.7626 81.0852 59.4663 81.2585 59.2667C81.4289 59.0671 81.6521 58.9673 81.9282 58.9673C82.2044 58.9673 82.4276 59.0671 82.6068 59.2667C82.786 59.4663 82.8741 59.7408 82.8741 60.0963Z" fill="#1CD4E0"/>
<path d="M84.9085 59.1376H85.1142V57.943C85.1142 57.6218 85.123 57.3723 85.1377 57.1882C85.1553 57.0073 85.1994 56.8483 85.2728 56.7173C85.3462 56.58 85.452 56.4709 85.5871 56.3867C85.7252 56.3025 85.8779 56.2588 86.0453 56.2588C86.2833 56.2588 86.4977 56.3524 86.6916 56.5426C86.8179 56.6674 86.9001 56.8233 86.9354 57.0042C86.9706 57.1851 86.9853 57.444 86.9853 57.7808V59.1345H87.6727C87.9371 59.1345 88.1398 59.2031 88.2808 59.3341C88.4218 59.4682 88.4893 59.6397 88.4893 59.8487C88.4893 60.1169 88.3894 60.3041 88.1897 60.4101C87.9899 60.5162 87.705 60.5692 87.3349 60.5692H86.9853V64.2246C86.9853 64.5365 86.9971 64.7735 87.0176 64.9419C87.0382 65.1104 87.0911 65.2445 87.1821 65.3505C87.2703 65.4566 87.4171 65.5065 87.6169 65.5065C87.7256 65.5065 87.8754 65.4846 88.0634 65.4441C88.2514 65.4035 88.3983 65.3817 88.5011 65.3817C88.6509 65.3817 88.7889 65.4472 88.9094 65.5751C89.0298 65.703 89.0915 65.862 89.0915 66.0523C89.0915 66.3735 88.927 66.6168 88.598 66.7884C88.269 66.9568 87.7961 67.0441 87.1792 67.0441C86.5947 67.0441 86.1511 66.9412 85.8485 66.7322C85.546 66.5232 85.3492 66.2332 85.2552 65.8652C85.1612 65.4971 85.1142 65.0043 85.1142 64.3868V60.5692H84.8674C84.5972 60.5692 84.3916 60.5006 84.2506 60.3664C84.1096 60.2292 84.0391 60.0577 84.0391 59.8487C84.0391 59.6397 84.1125 59.4682 84.2623 59.3341C84.4092 59.2031 84.6236 59.1376 84.9085 59.1376Z" fill="#1CD4E0"/>
<path d="M94.5156 65.9234C94.0632 66.2976 93.6255 66.5784 93.2025 66.7655C92.7795 66.9526 92.3036 67.0462 91.7778 67.0462C91.299 67.0462 90.876 66.9464 90.5118 66.7437C90.1476 66.5409 89.8685 66.2696 89.6717 65.9234C89.4749 65.5772 89.375 65.206 89.375 64.8006C89.375 64.2579 89.5366 63.7931 89.8626 63.4095C90.1887 63.0259 90.6322 62.767 91.1992 62.636C91.3167 62.6079 91.6133 62.5424 92.0833 62.4395C92.5533 62.3366 92.9587 62.2461 93.2936 62.1588C93.6284 62.0746 93.9956 61.9717 94.3892 61.85C94.3657 61.326 94.2659 60.9424 94.0896 60.696C93.9134 60.4527 93.5491 60.328 92.9969 60.328C92.521 60.328 92.1626 60.3997 91.9247 60.5401C91.6838 60.6804 91.4782 60.8925 91.3078 61.1732C91.1375 61.4539 91.0141 61.6411 90.9436 61.7315C90.8731 61.822 90.7204 61.8656 90.4883 61.8656C90.2768 61.8656 90.0976 61.7939 89.9419 61.6504C89.7892 61.5069 89.7128 61.3229 89.7128 61.1015C89.7128 60.7522 89.8303 60.4122 90.0624 60.0816C90.2944 59.751 90.6587 59.4796 91.1522 59.2675C91.6457 59.0555 92.2625 58.9463 92.9969 58.9463C93.8194 58.9463 94.4656 59.0492 94.9386 59.2551C95.4085 59.4609 95.7405 59.7884 95.9373 60.2344C96.1312 60.6804 96.2281 61.273 96.2281 62.0122C96.2281 62.4801 96.2281 62.873 96.2252 63.2005C96.2222 63.5249 96.2193 63.8867 96.2164 64.2859C96.2164 64.6602 96.2751 65.0501 96.3926 65.4555C96.5101 65.861 96.5688 66.123 96.5688 66.2384C96.5688 66.4411 96.4778 66.6283 96.2986 66.7967C96.1194 66.9651 95.9138 67.0462 95.6847 67.0462C95.4937 67.0462 95.3028 66.9495 95.1148 66.7593C94.9239 66.5659 94.7271 66.2883 94.5156 65.9234ZM94.3922 63.0477C94.1161 63.1537 93.7195 63.2692 93.1937 63.3877C92.6708 63.5062 92.3066 63.5935 92.1068 63.6497C91.9042 63.7058 91.7132 63.815 91.5311 63.9772C91.349 64.1393 91.2579 64.367 91.2579 64.6571C91.2579 64.9565 91.3666 65.2154 91.581 65.4243C91.7955 65.6364 92.0775 65.7425 92.4241 65.7425C92.7942 65.7425 93.1379 65.6551 93.4493 65.4836C93.7636 65.3121 93.9927 65.0906 94.1396 64.8162C94.3099 64.5136 94.3922 64.0208 94.3922 63.3315V63.0477Z" fill="#1CD4E0"/>
<path d="M98 65.835V57.2111C98 56.8119 98.0823 56.5125 98.2497 56.3066C98.4171 56.1039 98.6404 56.001 98.9253 56.001C99.2073 56.001 99.4364 56.1008 99.6097 56.3035C99.783 56.5062 99.8712 56.8057 99.8712 57.2111V65.835C99.8712 66.2374 99.783 66.5399 99.6068 66.7426C99.4305 66.9454 99.2014 67.0452 98.9253 67.0452C98.6521 67.0452 98.4289 66.9422 98.2556 66.7333C98.0852 66.5243 98 66.2249 98 65.835Z" fill="#1CD4E0"/>
<path d="M30.1063 43.1417L17.5184 10.466C16.0066 6.54416 17.9154 2.07146 21.7621 0.531923C25.6058 -1.01059 29.9896 0.936908 31.4985 4.85871L44.0863 37.5344C45.5982 41.4562 43.6894 45.9289 39.8427 47.4714C36.0018 49.0139 31.6181 47.0635 30.1063 43.1417Z" fill="#1CD4E0"/>
<path d="M55.3463 43.1417L42.7584 10.466C41.2465 6.54416 43.1553 2.07146 47.002 0.528946C50.8458 -1.01357 55.2295 0.93393 56.7413 4.85871L69.3292 37.5344C70.841 41.4562 68.9323 45.9289 65.0856 47.4714C61.2418 49.0139 56.8581 47.0635 55.3463 43.1417Z" fill="#1CD4E0"/>
<path d="M73.7479 26.1561C74.0486 26.9661 74.9738 27.3234 75.7238 26.9185C81.7303 23.6845 84.5759 16.3174 82.1155 9.6679C79.6493 3.00948 72.7294 -0.596673 66.1217 1.04113C65.3074 1.24362 64.8608 2.13995 65.1556 2.94099L73.7479 26.1561Z" fill="#1CD4E0"/>
</svg>
